# xmcd
#
# Track frame offsets:
#	150
#	16602
#	34904
#	54824
#	78487
#	98289
#	118108
#	134658
#	157797
#	177617
#	194077
#	212607
#	231334
#	251769
#	267702
#	285072
#	304980
#
# Disc length: 4297 seconds
#
# Revision: 1
# Processed by: cddbd v1.4PL0 Copyright (c) Steve Scherf et al.
# Submitted via: audiograbber 1.80
#
DISCID=e910c711
DTITLE=Laura Pausini  - 80 minuti con Laura Pausini 
DYEAR=1900
DGENRE=
TTITLE0=La mia risposta
TTITLE1=Stanotte stai con me
TTITLE2=Un'emergenza d'amore
TTITLE3=Come una danza
TTITLE4=In assenza di te
TTITLE5=Le cose che vivi
TTITLE6=Incacellabile
TTITLE7=Angeli nel blu
TTITLE8=Gente
TTITLE9=Lui non sta con te
TTITLE10=Strani amori
TTITLE11=Ragazze che
TTITLE12=Non c'e
TTITLE13=Dove sei
TTITLE14=Baci che si rubano
TTITLE15=Tutt'al piu
TTITLE16=La solitudine
EXTD=
EXTT0=
EXTT1=
EXTT2=
EXTT3=
EXTT4=
EXTT5=
EXTT6=
EXTT7=
EXTT8=
EXTT9=
EXTT10=
EXTT11=
EXTT12=
EXTT13=
EXTT14=
EXTT15=
EXTT16=
PLAYORDER=
